<svg xmlns="http://www.w3.org/2000/svg" width="695.328" height="695.328" viewBox="0 0 695.328 695.328">
  <path id="Caminho_1" data-name="Caminho 1" d="M1054.95,769.91c-46.875-7.907-72.43,14.4-80.079,35.3-.675,1.847-2.87,1.569-2.87-.2l-.023-6.5c0-23.343,20.8-44.688,45.573-69.462l40.929-40.961,109.045,18.756s31.149,31.148,57.784,57.809A346.252,346.252,0,0,0,1307.664,540c0-192.01-155.655-347.664-347.664-347.664S612.336,347.99,612.336,540a346.258,346.258,0,0,0,82.355,224.654c26.635-26.661,57.785-57.809,57.785-57.809l123.775-21.273c57.323-9.978,71.631,2.918,71.725,21.9a1.489,1.489,0,0,1-1.489,1.49l-35.742-.009a1.489,1.489,0,0,0-1.489,1.489v21.13a1.489,1.489,0,0,0,1.489,1.489h35.771a1.488,1.488,0,0,1,1.489,1.488S948,803.738,948,805.012c0,1.765-2.2,2.043-2.871.2-7.648-20.9-33.2-43.205-80.079-35.3,0,0-81.51,14.085-141.971,24.5a347.574,347.574,0,0,0,473.842,0c-60.46-10.41-141.971-24.5-141.971-24.5m-79.976,1.007c-.458,2.222-3,2.214-3,0V734.559a1.489,1.489,0,0,1,1.489-1.489l18.015-.011c-8.012,10.59-13.136,21.5-16.508,37.858m129.293-227.11c8.712,28.155,3.022,71.317-37.781,112.12l-49,49.044c-1.37,1.371-2.7,2.7-3.988,3.992H979.776c8.259-14.183,22.233-28.376,37.775-43.917l34.15-34.124c43.177-43.175,49.98-63.5,49.777-87.158-.022-2.507,2.049-2.347,2.789.043m-66.782-26.72c27.905-27.907,34.644-60.243,12.453-79.467-1.856-1.609-.892-3.579,1.535-2.472,27.674,12.612,49.489,58.434,2.045,105.879l-36.043,35.958c-24.509,24.509-36.367,36.183-42.49,65.9-.458,2.223-3,2.215-3,0V606.471c0-23.343,20.8-44.688,45.573-69.462ZM815.909,549.852c-8.711-28.154-3.022-71.315,37.782-112.12L961.614,329.761c24.509-24.509,36.393-36.233,42.517-65.945.458-2.224,3-2.216,3,0v36.409c0,23.343-20.8,44.688-45.574,69.461l-93.078,93.051c-43.176,43.177-49.98,63.5-49.776,87.159.021,2.507-2.049,2.348-2.79-.044m16.548,64.32c-24.13-29.5-15.921-75.418,31.519-122.857l97.757-97.675c24.508-24.509,36.363-36.417,42.486-66.13.458-2.222,3-2.214,3,0v36.657c0,23.343-20.8,44.688-45.574,69.462L875.26,520.012c-18.213,18.214-56.466,56.484-40.515,92.576,1.05,2.374-.68,3.551-2.288,1.584m50.236-37.6c-27.907,27.906-34.645,60.242-12.454,79.466,1.856,1.608.892,3.579-1.535,2.471-27.674-12.612-49.489-58.432-2.045-105.879l94.97-94.885c24.509-24.509,36.368-36.183,42.491-65.9.457-2.222,2.995-2.215,2.995,0V428.26c0,23.344-20.8,44.689-45.573,69.462Zm89.2,93.991c0-23.344,20.8-44.688,45.573-69.462l27.454-27.456c18.213-18.213,56.465-56.483,40.514-92.575-1.05-2.375.681-3.552,2.289-1.585,24.129,29.5,15.92,75.419-31.519,122.858l-38.829,38.746c-24.509,24.509-36.363,36.417-42.487,66.13-.457,2.223-2.995,2.215-2.995,0Zm225.472,1.3c0-11.192,8.094-19.285,19.287-19.285a18.937,18.937,0,0,1,19.285,19.285c0,11.2-8.093,19.286-19.285,19.286s-19.287-8.088-19.287-19.286m35.58,0c0-9.089-6.783-16.5-16.293-16.5s-16.345,6.884-16.345,16.5a16.32,16.32,0,1,0,32.638,0m-23.493-11.456h6.727c5.726,0,8.3,2.261,8.3,6.782a6.167,6.167,0,0,1-4.1,5.99l6.1,10.2h-4.516l-5.259-9.094h-3.256v9.094h-3.994Zm6.62,10.618c2.733,0,4.364-1.524,4.364-3.734,0-2.469-1.366-3.521-4.415-3.521h-2.575v7.255Z" transform="translate(-612.336 -192.336)" fill="#fff"/>
</svg>
